<?xml version="1.0" encoding="UTF-8" standalone="no"?>
<!-- Created with Inkscape (http://www.inkscape.org/) -->

<svg
   xmlns:dc="http://purl.org/dc/elements/1.1/"
   xmlns:cc="http://creativecommons.org/ns#"
   xmlns:rdf="http://www.w3.org/1999/02/22-rdf-syntax-ns#"
   xmlns:svg="http://www.w3.org/2000/svg"
   xmlns="http://www.w3.org/2000/svg"
   version="1.1"
   width="100%"
   height="100%"
   viewBox="0 0 100 100"
   id="Ebene_1"
   xml:space="preserve"><metadata
   id="metadata13"><rdf:RDF><cc:Work
       rdf:about=""><dc:format>image/svg+xml</dc:format><dc:type
         rdf:resource="http://purl.org/dc/dcmitype/StillImage" /><dc:title></dc:title></cc:Work></rdf:RDF></metadata><defs
   id="defs11" />
<g
   id="_x32_4x24_8_">
	<path
   d="M 50.001,1 C 22.992,1 1,22.985 1,49.998 1,77.025 22.992,99 50.001,99 77.013,99 99,77.025 99,49.998 99,22.985 77.013,1 50.001,1"
   id="path718-7_3_"
   style="fill:#ffffff" />
	<g
   id="_x32_4x24">
		<path
   d="m 56.158,27.929 c 3.013,0 5.488,-2.475 5.488,-5.488 0,-3.013 -2.475,-5.488 -5.488,-5.488 -3.013,0 -5.488,2.475 -5.488,5.488 0,3.013 2.475,5.488 5.488,5.488 z m 13.019,19.584 -4.842,-2.69 c 0,0 -5.595,-3.766 -5.38,-8.608 0,0 -0.968,-5.38 -5.811,-6.994 0,0 -2.367,-1.829 -5.38,-0.753 l -12.697,5.918 c 0,0 -1.829,1.076 -1.829,2.367 0,1.291 0,12.697 0,12.697 0,0 -0.323,2.367 1.291,2.367 0,0 2.798,-0.968 2.798,-1.722 l 0.108,-9.577 c 0,0 0.323,-0.753 2.367,-2.152 l 2.152,-1.614 c 0,0 2.367,-1.614 1.937,0.538 0,0 -4.304,6.349 -4.304,10.222 v 9.684 l -8.823,20.337 c 0,0 -2.69,4.196 1.614,5.488 0,0 2.905,0.43 4.196,-2.26 l 7.747,-14.957 c 0,0 1.722,-4.412 3.228,-2.905 l 5.488,6.133 c 0,0 1.506,3.228 1.506,11.836 0,0 -0.538,2.152 3.443,2.152 0,0 2.905,0.108 2.905,-2.044 v -7.963 c 0,0 -0.43,-9.146 -8.501,-18.292 v -2.69 l 1.4,-7.531 c 0,0 1.614,-1.829 2.69,-0.215 0,0 -0.215,2.26 4.304,4.734 l 5.38,2.044 c 0,0 3.013,1.076 3.551,-0.538 0,0 1.076,-2.474 -0.538,-3.012 z"
   id="path7_2_"
   style="fill:#000c2a" />
	</g>
	<g
   transform="matrix(0.12901568,0,0,0.12901568,127.21331,222.31486)"
   id="g716_18_">
		<path
   d="m -598.468,-980.239 c -195.936,0 -355.364,-159.416 -355.364,-355.385 0,-196.021 159.428,-355.391 355.364,-355.391 195.971,0 355.354,159.37 355.354,355.391 0,195.969 -159.383,355.385 -355.354,355.385 m 0,-735.167 c -209.348,0 -379.808,170.405 -379.808,379.782 0,209.482 170.46,379.812 379.808,379.812 209.363,0 379.787,-170.33 379.787,-379.812 0,-209.377 -170.424,-379.782 -379.787,-379.782"
   id="path718_21_"
   style="fill:#000c2a" />
	</g>
</g>
</svg>